# AST/ASF file generated using VICON BodyLanguage
# -----------------------------------------------
:version 1.10
:name VICON
:units
  mass 1.0
  length 0.45
  angle deg
:documentation
   .ast/.asf automatically generated from VICON data using
   VICON BodyBuilder and BodyLanguage model FoxedUp or BRILLIANT.MOD
:root
   order TX TY TZ RX RY RZ
   axis XYZ
   position 0 0 0  
   orientation 0 0 0 
:bonedata
  begin
     id 1 
     name lhipjoint
     direction 0.573633 -0.743009 0.344793 
     length 2.46257 
     axis 0 0 0  XYZ
  end
  begin
     id 2 
     name lfemur
     direction 0.34202 -0.939693 0  
     length 7.3842  
     axis 0 0 20  XYZ
    dof rx ry rz
    limits (-160.0 20.0)
           (-70.0 70.0)
           (-60.0 70.0)
  end
  begin
     id 3 
     name ltibia
     direction 0.34202 -0.939693 0   
     length 7.50407   
     axis 0 0 20   XYZ
    dof rx
    limits (-10.0 170.0)
  end
  begin
     id 4 
     name lfoot
     direction 0.110749 -0.304281 0.946123   
     length 1.95925   
     axis -90 7.62852e-016 20   XYZ
    dof rx rz
    limits (-45.0 90.0)
           (-70.0 20.0)
  end
  begin
     id 5 
     name ltoes
     direction 1.53554e-011 -4.21843e-011 1   
     length 0.978318   
     axis -90 7.62852e-016 20   XYZ
    dof rx
    limits (-90.0 20.0)
  end
  begin
     id 6 
     name rhipjoint
     direction -0.488109 -0.791693 0.367385   
     length 2.31113  
     axis 0 0 0  XYZ 
  end
  begin
     id 7 
     name rfemur
     direction -0.34202 -0.939693 0   
     length 7.40965   
     axis 0 0 -20   XYZ
    dof rx ry rz
    limits (-160.0 20.0)
           (-70.0 70.0)
           (-70.0 60.0)
  end
  begin
     id 8 
     name rtibia
     direction -0.34202 -0.939693 0   
     length 7.55548   
     axis 0 0 -20   XYZ
    dof rx
    limits (-10.0 170.0)
 end
 begin
     id 9 
     name rfoot
     direction -0.127594 -0.350561 0.927808   
     length 2.07199  
     axis -90 -7.62852e-016 -20   XYZ
    dof rx rz
    limits (-45.0 90.0)
           (-20.0 70.0)
  end
  begin
     id 10 
     name rtoes
     direction -1.53542e-011 -4.21909e-011 1   
     length 1.02667   
     axis -90 -7.62852e-016 -20   XYZ
    dof rx
    limits (-90.0 20.0)
  end
  begin
     id 11 
     name lowerback
     direction -0.0103342 0.997298 -0.0727278   
     length 2.02836   
     axis 0 0 0   XYZ
    dof rx ry rz
    limits (-20.0 45.0)
           (-30.0 30.0)
           (-30.0 30.0)
  end
  begin
     id 12 
     name upperback
     direction 0.0171146 0.999786 -0.011606   
     length 2.03179   
     axis 0 0 0   XYZ
    dof rx ry rz
    limits (-20.0 45.0)
           (-30.0 30.0)
           (-30.0 30.0)
  end
  begin
     id 13 
     name thorax
     direction 0.0216927 0.999513 0.0224343   
     length 2.03882   
     axis 0 0 0   XYZ
    dof rx ry rz
    limits (-20.0 45.0)
           (-30.0 30.0)
           (-30.0 30.0)
  end
  begin
     id 14 
     name lowerneck
     direction 0.000989287 0.993907 0.110221   
     length 1.75428   
     axis 0 0 0   XYZ
    dof rx ry rz
    limits (-20.0 45.0)
           (-30.0 30.0)
           (-30.0 30.0)
  end
  begin
     id 15 
     name upperneck
     direction -0.0172474 0.994813 -0.100253   
     length 1.77058   
     axis 0 0 0   XYZ
    dof rx ry rz
    limits (-20.0 45.0)
           (-30.0 30.0)
           (-30.0 30.0)
  end
  begin
     id 16
     name head
     direction -0.00486455 0.99894 -0.0457663  
     length 1.77427  
     axis 0 0 0   XYZ
    dof rx ry rz
    limits (-20.0 45.0)
           (-30.0 30.0)
           (-30.0 30.0)
  end
  begin
     id 17 
     name lclavicle
     direction 0.927314 0.333734 -0.169441  
     length 3.97584  
     axis 0 0 0   XYZ
    dof ry rz
    limits (-20.0 10.0)
           (0.0 20.0)
  end
  begin
     id 18 
     name lhumerus
     direction 1 -4.48965e-011 -3.25313e-028   
     length 4.76468   
     axis 180 -30 -90   XYZ
    dof rx ry rz
    limits (-60.0 90.0)
           (-90.0 90.0)
           (-90.0 90.0)
  end
  begin
     id 19
     name lradius
     direction 1 -4.48969e-011 -2.8465e-028   
     length 3.52712   
     axis -180 -30 -90   XYZ
    dof rx
    limits (-10.0 170.0)
  end
  begin
     id 20
     name lwrist
     direction 1 -4.4896e-011 -7.78665e-028   
     length 1.76356   
     axis 1.91374e-015 90 90   XYZ
    dof ry
    limits (-180.0 0.0)
 end
  begin
     id 21 
     name lhand
     direction 1 -4.48959e-011 -1.55733e-027   
     length 0.859564   
     axis 9.9371e-016 90 90   XYZ
    dof rx rz
    limits (-90.0 90.0)
           (-45.0 45.0)
  end
  begin
     id 22 
     name lfingers
     direction 1 -4.48965e-011 -3.11466e-027   
     length 0.693002   
     axis 1.98742e-015 90 90   XYZ
    dof rx
    limits (0.0 90.0)
  end
  begin
     id 23
     name lthumb
     direction 0.707107 -6.34948e-011 0.707107   
     length 0.995017   
     axis -90 45 2.85299e-015   XYZ
    dof rx rz
    limits (-45.0 45.0)
           (-45.0 45.0)
  end
  begin
     id 24 
     name rclavicle
     direction -0.899388 0.348209 -0.264294   
     length 3.68366  
     axis 0 0 0   XYZ 
    dof ry rz
    limits (-10.0 20.0)
           (-20.0 0.0)
  end
  begin
     id 25 
     name rhumerus
     direction -1 -4.48965e-011 -3.01536e-027  
     length 4.90577   
     axis 180 30 90   XYZ
    dof rx ry rz
    limits (-90.0 60.0)
           (-90.0 90.0)
           (-90.0 90.0)
  end
  begin
     id 26 
     name rradius
     direction -1 -4.48966e-011 3.93291e-027   
     length 3.42692   
     axis -180 30 90   XYZ
    dof rx
    limits (-10.0 170.0)
  end
  begin
     id 27 
     name rwrist
     direction -1 -4.48969e-011 -7.78665e-028   
     length 1.71346   
     axis 1.91374e-015 -90 -90   XYZ
    dof ry
    limits (-180.0 0.0)
  end
  begin
     id 28
     name rhand
     direction -1 -4.48967e-011 -1.55733e-027   
     length 0.740957   
     axis 9.9371e-016 -90 -90   XYZ
    dof rx rz
    limits (-90.0 90.0)
           (-45.0 45.0)
  end
  begin
     id 29
     name rfingers
     direction -1 -4.48949e-011 -3.11466e-027   
     length 0.597378   
     axis 1.98742e-015 -90 -90   XYZ
    dof rx
    limits (0.0 90.0)
  end
  begin
     id 30
     name rthumb
     direction -0.707107 -6.34931e-011 0.707107   
     length 0.857719   
     axis -90 -45 -2.85299e-015   XYZ
    dof rx rz
    limits (-45.0 45.0)
           (-45.0 45.0)
  end
:hierarchy
  begin
    root lhipjoint rhipjoint lowerback
    lhipjoint lfemur
    lfemur ltibia
    ltibia lfoot
    lfoot ltoes
    rhipjoint rfemur
    rfemur rtibia
    rtibia rfoot
    rfoot rtoes
    lowerback upperback
    upperback thorax
    thorax lowerneck lclavicle rclavicle
    lowerneck upperneck
    upperneck head
    lclavicle lhumerus
    lhumerus lradius
    lradius lwrist
    lwrist lhand lthumb
    lhand lfingers
    rclavicle rhumerus
    rhumerus rradius
    rradius rwrist
    rwrist rhand rthumb
    rhand rfingers
  end

#!OML:ASF E:\I on waltz\AllaLogoMonkeySwing\Project 1\Capture day 1\Session 1\Subject1.ASF
:FULLY-SPECIFIED
:DEGREES
289
root 0.819143 4.03711 -2.9431 -64.6787 3.48774 -1.35674
lowerback 57.2257 -0.133911 -4.37162
upperback 11.9093 -2.81409 -0.385713
thorax -7.75178 -1.41234 2.74778
lowerneck -6.236 -5.16343 -8.7897
upperneck 11.1805 -6.55183 4.37836
head 4.81503 -3.34095 2.36655
rclavicle 1.41323e-014 -9.93923e-016
rhumerus 15.1416 19.0729 -68.1762
rradius 74.3315
rwrist -13.7894
rhand -3.66005 -38.6551
rfingers 7.12502
rthumb 22.0804 -67.4144
lclavicle 1.41323e-014 -9.93923e-016
lhumerus 11.7451 -9.37473 71.1552
lradius 76.1792
lwrist 11.6759
lhand -0.424115 -8.55135
lfingers 7.12502
lthumb 25.1841 19.8071
rfemur -67.4542 -24.6145 17.4445
rtibia 41.3114
rfoot 172.919 13.0081
rtoes 39.0158
lfemur -67.4281 13.6219 -20.9588
ltibia 44.6494
lfoot 173.725 10.6645
ltoes -3.72479
290
root 0.817689 4.03875 -2.95188 -64.8991 3.48799 -1.22901
lowerback 57.4593 -0.0342317 -4.54669
upperback 11.9861 -2.81522 -0.403597
thorax -7.66861 -1.42098 2.80157
lowerneck -5.99766 -5.76451 -9.68297
upperneck 10.652 -7.35288 4.99878
head 4.72371 -3.73327 2.65117
rclavicle 4.77891e-014 2.48481e-014
rhumerus 15.0501 18.1519 -68.3259
rradius 73.9829
rwrist -14.0983
rhand -3.68491 -39.1425
rfingers 7.12502
rthumb 22.0565 -67.9046
lclavicle 4.77891e-014 2.48481e-014
lhumerus 11.4525 -7.45486 71.4652
lradius 77.0298
lwrist 12.7136
lhand -2.08689 -8.72481
lfingers 7.12502
lthumb 23.5901 19.8482
rfemur -67.1573 -24.5386 17.254
rtibia 41.4002
rfoot 173.013 12.9513
rtoes 38.9163
lfemur -67.1119 13.6594 -20.9379
ltibia 44.722
lfoot 173.751 10.6505
ltoes -3.50977
291
root 0.813304 4.04355 -2.96104 -65.1778 3.44227 -1.05319
lowerback 57.8117 0.146909 -4.79125
upperback 12.0039 -2.76918 -0.396745
thorax -7.65477 -1.40824 2.8928
lowerneck -5.58109 -6.38839 -10.6004
upperneck 10.1039 -8.20125 5.6111
head 4.61377 -4.15309 2.93742
rclavicle -9.75908e-015 -8.05078e-015
rhumerus 14.799 17.4208 -68.3526
rradius 73.5987
rwrist -14.0829
rhand -3.85014 -39.4515
rfingers 7.12502
rthumb 21.8979 -68.2323
lclavicle -9.75908e-015 -8.05078e-015
lhumerus 11.008 -5.54852 71.7005
lradius 77.8772
lwrist 13.6155
lhand -3.77022 -8.92295
lfingers 7.12502
lthumb 21.9746 19.8489
rfemur -66.7789 -24.4141 17.0884
rtibia 41.4977
rfoot 173.161 12.9138
rtoes 38.9415
lfemur -66.6555 13.8174 -20.8401
ltibia 44.8552
lfoot 173.716 10.6612
ltoes -3.71724
292
root 0.806893 4.04606 -2.96782 -65.4843 3.44428 -0.900473
lowerback 58.1937 0.33008 -5.01577
upperback 12.0083 -2.71351 -0.405626
thorax -7.65837 -1.38784 2.95288
lowerneck -5.12974 -7.04233 -11.2319
upperneck 9.5995 -9.09728 5.9569
head 4.5037 -4.6009 3.09283
rclavicle 1.63034e-014 -8.05078e-015
rhumerus 14.3277 16.6521 -68.361
rradius 73.1298
rwrist -13.8303
rhand -4.1049 -39.4094
rfingers 7.12502
rthumb 21.6532 -68.2186
lclavicle 1.63034e-014 -8.05078e-015
lhumerus 10.5353 -3.77544 71.845
lradius 78.5972
lwrist 14.0933
lhand -5.19084 -9.1072
lfingers 7.12502
lthumb 20.61 19.8186
rfemur -66.3915 -24.3455 16.9091
rtibia 41.5536
rfoot 173.284 12.9353
rtoes 39.1298
lfemur -66.1928 13.9382 -20.7614
ltibia 45.0069
lfoot 173.74 10.6602
ltoes -3.82743
293
root 0.804051 4.04424 -2.96952 -65.6356 3.41612 -0.925285
lowerback 58.3195 0.344562 -5.01338
upperback 12.0745 -2.70164 -0.409206
thorax -7.58985 -1.38618 2.93959
lowerneck -4.76979 -7.64253 -11.733
upperneck 9.13858 -9.92519 6.28831
head 4.41728 -5.01047 3.22489
rclavicle -4.2981e-014 -1.26228e-014
rhumerus 13.8524 15.9369 -68.1537
rradius 72.5398
rwrist -13.7982
rhand -4.25191 -39.5232
rfingers 7.12502
rthumb 21.512 -68.3486
lclavicle -4.2981e-014 -1.26228e-014
lhumerus 10.1057 -2.09459 71.8867
lradius 79.1268
lwrist 14.3737
lhand -5.95177 -9.28805
lfingers 7.12502
lthumb 19.8787 19.7153
rfemur -66.3087 -24.4322 16.9023
rtibia 41.5777
rfoot 173.399 12.9376
rtoes 38.774
lfemur -66.049 13.8656 -20.6736
ltibia 45.0189
lfoot 173.762 10.6194
ltoes -3.87108
294
root 0.804781 4.04386 -2.96705 -65.5616 3.35083 -0.972375
lowerback 58.1441 0.30797 -4.96547
upperback 12.1545 -2.70339 -0.401249
thorax -7.49315 -1.39194 2.92816
lowerneck -4.29481 -8.11469 -12.2548
upperneck 8.63733 -10.6012 6.69878
head 4.29736 -5.34493 3.40146
rclavicle -3.22901e-014 -1.03368e-014
rhumerus 13.3898 15.4945 -67.6816
rradius 71.9456
rwrist -13.9195
rhand -4.38911 -39.8815
rfingers 7.12502
rthumb 21.3803 -68.7219
lclavicle -3.22901e-014 -1.03368e-014
lhumerus 9.49852 -0.485565 71.7277
lradius 79.6966
lwrist 14.7619
lhand -6.00901 -9.33304
lfingers 7.12502
lthumb 19.8237 19.676
rfemur -66.5827 -24.568 16.9908
rtibia 41.6514
rfoot 173.65 12.8171
rtoes 37.73
lfemur -66.1784 13.743 -20.617
ltibia 44.9299
lfoot 173.737 10.5558
ltoes -3.90417
295
root 0.802014 4.04599 -2.96178 -65.3788 3.29708 -0.853806
lowerback 57.8092 0.430797 -5.11897
upperback 12.2443 -2.62825 -0.388016
thorax -7.36906 -1.36795 2.97882
lowerneck -3.87036 -8.5063 -12.7249
upperneck 8.28299 -11.1706 7.06814
head 4.22134 -5.62863 3.56194
rclavicle -7.90169e-015 -5.36719e-015
rhumerus 12.7832 15.2311 -67.1446
rradius 71.3299
rwrist -14.0924
rhand -4.77413 -40.1328
rfingers 7.12502
rthumb 21.0104 -69.0148
lclavicle -7.90169e-015 -5.36719e-015
lhumerus 8.75368 0.912969 71.3151
lradius 80.2236
lwrist 15.0859
lhand -5.96699 -9.27715
lfingers 7.12502
lthumb 19.8641 19.7277
rfemur -66.7965 -24.5081 16.9846
rtibia 41.6898
rfoot 173.68 12.6065
rtoes 37.54
lfemur -66.3618 13.8056 -20.5986
ltibia 44.8702
lfoot 173.675 10.5731
ltoes -3.69367
